HIERARCHY
ROOT root
{
	OFFSET 0.000000 0.000000 0.000000
	CHANNELS 6 Xposition Yposition Zposition Zrotation Yrotation Xrotation
	JOINT lhip
	{
		OFFSET 0.058581 -0.082280 -0.017664
		CHANNELS 3 Zrotation Yrotation Xrotation
		JOINT lknee
		{
			OFFSET 0.043451 -0.386469 0.008037
			CHANNELS 3 Zrotation Yrotation Xrotation
			JOINT lankle
			{
				OFFSET -0.014790 -0.426874 -0.037428
				CHANNELS 3 Zrotation Yrotation Xrotation
				JOINT ltoe
				{
					OFFSET 0.041054 -0.060286 0.122042
					CHANNELS 3 Zrotation Yrotation Xrotation
					End Site
					{
						OFFSET 0.000000 0.000000 0.000000
					}
				}
			}
		}
	}
	JOINT rhip
	{
		OFFSET -0.060310 -0.090513 -0.013543
		CHANNELS 3 Zrotation Yrotation Xrotation
		JOINT rknee
		{
			OFFSET -0.043257 -0.383688 -0.004843
			CHANNELS 3 Zrotation Yrotation Xrotation
			JOINT rankle
			{
				OFFSET 0.019056 -0.420046 -0.034562
				CHANNELS 3 Zrotation Yrotation Xrotation
				JOINT rtoe
				{
					OFFSET -0.034840 -0.062106 0.130323
					CHANNELS 3 Zrotation Yrotation Xrotation
					End Site
					{
						OFFSET 0.000000 0.000000 0.000000
					}
				}
			}
		}
	}
	JOINT lowerback
	{
		OFFSET 0.004439 0.124404 -0.038385
		CHANNELS 3 Zrotation Yrotation Xrotation
		JOINT upperback
		{
			OFFSET 0.004488 0.137956 0.026820
			CHANNELS 3 Zrotation Yrotation Xrotation
			JOINT chest
			{
				OFFSET -0.002265 0.056032 0.002855
				CHANNELS 3 Zrotation Yrotation Xrotation
				JOINT lowerneck
				{
					OFFSET -0.013390 0.211636 -0.033468
					CHANNELS 3 Zrotation Yrotation Xrotation
					JOINT upperneck
					{
						OFFSET 0.010113 0.088937 0.050410
						CHANNELS 3 Zrotation Yrotation Xrotation
						End Site
						{
							OFFSET 0.000000 0.000000 0.000000
						}
					}
				}
				JOINT lclavicle
				{
					OFFSET 0.071702 0.114000 -0.018898
					CHANNELS 3 Zrotation Yrotation Xrotation
					JOINT lshoulder
					{
						OFFSET 0.122921 0.045205 -0.019046
						CHANNELS 3 Zrotation Yrotation Xrotation
						JOINT lelbow
						{
							OFFSET 0.255332 -0.015649 -0.022946
							CHANNELS 3 Zrotation Yrotation Xrotation
							JOINT lwrist
							{
								OFFSET 0.265709 0.012698 -0.007375
								CHANNELS 3 Zrotation Yrotation Xrotation
								End Site
								{
									OFFSET 0.000000 0.000000 0.000000
								}
							}
						}
					}
				}
				JOINT rclavicle
				{
					OFFSET -0.082954 0.112472 -0.023707
					CHANNELS 3 Zrotation Yrotation Xrotation
					JOINT rshoulder
					{
						OFFSET -0.113228 0.046853 -0.008472
						CHANNELS 3 Zrotation Yrotation Xrotation
						JOINT relbow
						{
							OFFSET -0.260127 -0.014369 -0.031269
							CHANNELS 3 Zrotation Yrotation Xrotation
							JOINT rwrist
							{
								OFFSET -0.269108 0.006794 -0.006027
								CHANNELS 3 Zrotation Yrotation Xrotation
								End Site
								{
									OFFSET 0.000000 0.000000 0.000000
								}
							}
						}
					}
				}
			}
		}
	}
}
MOTION
Frames: 8
Frame Time: 0.033333
-0.853167 0.692650 1.016960 -76.765479 -4.111861 95.942688 -4.829691 -12.777312 -7.696277 -1.476314 -15.570281 -6.579662 3.341688 6.177288 -0.548736 0.000000 -0.000000 0.000000 -6.377164 -3.507711 -28.074367 2.945263 -9.189569 52.376072 3.549087 -3.992565 17.204888 0.000000 -0.000000 0.000000 1.411900 2.518087 6.203227 -6.403635 3.155991 17.139967 -5.880733 5.131775 -7.095868 -9.723343 39.013401 4.613231 -7.133628 34.937201 -11.584966 -22.842184 -9.951212 -0.955827 -53.675028 -1.834450 22.692035 20.291726 -73.926520 -0.551295 0.011240 -24.162587 -3.675318 13.206588 9.564962 9.041900 59.818157 0.868914 10.077237 -14.045161 43.406823 -5.998877 11.737360 21.198390 -16.975161 
-0.830185 0.691395 1.019444 -75.371361 -4.775957 95.355583 -5.619789 -12.556398 -5.778071 -2.401230 -16.956028 -4.304143 3.923169 6.210907 -3.188117 0.000000 -0.000000 0.000000 -7.085017 -4.044835 -28.831699 2.696548 -8.888476 52.500867 3.664280 -4.159251 17.521926 0.000000 -0.000000 0.000000 0.946109 2.163887 5.537545 -6.554390 3.012255 18.046661 -6.109894 4.922525 -7.324176 -10.225743 39.135181 5.721419 -7.297785 35.733715 -13.041047 -23.827631 -10.476698 -1.048952 -53.999459 -2.443680 23.356449 21.864459 -71.560565 -2.173133 0.311302 -23.860227 -3.346715 13.701375 8.145264 9.099175 59.973065 -1.269175 9.460782 -13.541809 43.403073 -4.900157 11.611522 21.225697 -16.037077 
-0.804164 0.690524 1.021860 -74.029460 -4.998488 95.208938 -6.107925 -12.552237 -5.937116 -3.568326 -18.153409 1.378189 4.352755 6.335690 -6.276712 0.000000 -0.000000 0.000000 -7.415049 -3.981981 -30.311507 2.533820 -8.722979 52.478759 3.526303 -4.769946 18.003683 0.000000 -0.000000 0.000000 1.120272 1.605840 5.746988 -6.782223 2.812709 16.929956 -6.355152 4.688097 -6.602345 -10.824688 39.949419 5.703606 -7.277515 36.144738 -13.197739 -23.831565 -10.631923 -1.214030 -55.098746 -3.252316 23.800613 21.729951 -69.557087 -2.119970 0.434894 -24.045468 -3.183050 13.535971 6.646242 8.931931 60.840341 -3.157643 8.418623 -13.339739 43.262585 -4.691677 10.877138 21.102389 -16.300192 
-0.778006 0.689727 1.023684 -72.362660 -5.116271 95.206640 -6.278260 -11.809193 -7.106198 -5.445156 -18.507547 8.832904 3.652107 5.207757 -9.318200 0.000000 -0.000000 0.000000 -7.914989 -4.427916 -31.393165 2.294461 -9.241691 51.960912 3.278743 -5.097767 17.929200 0.000000 -0.000000 0.000000 1.307371 0.864369 5.264321 -6.845176 2.280074 16.362182 -6.495304 4.435610 -5.716841 -11.247094 40.436577 5.664779 -7.679703 36.581854 -13.109288 -23.962840 -10.667614 -1.367501 -55.634705 -3.783696 24.298567 20.850589 -68.199766 -1.213752 0.576371 -23.592922 -3.689398 13.801532 5.181429 8.740471 61.368540 -4.599787 7.164295 -13.711454 42.843004 -5.878350 10.383017 20.718706 -16.734087 
-0.754172 0.688192 1.026519 -71.825049 -5.119339 94.609873 -6.576540 -11.065437 -6.477864 -6.125526 -17.963172 14.368190 2.525157 5.156861 -10.640942 0.000000 -0.000000 0.000000 -8.144991 -4.326751 -31.294640 2.386246 -8.783501 50.764846 3.121689 -5.161927 17.491566 0.000000 -0.000000 0.000000 1.258556 0.633449 5.070962 -6.768210 2.137760 16.607923 -6.301851 4.341093 -5.269023 -12.320985 41.774586 5.573059 -8.053265 36.353961 -13.693000 -24.555720 -10.606305 -1.226937 -55.379514 -4.457504 24.579460 18.833385 -67.335391 0.518211 -0.248797 -23.600747 -3.660193 14.113182 3.644186 8.555754 61.690568 -5.460725 5.968749 -14.694544 42.297283 -7.367929 10.756123 20.193131 -17.229160 
-0.729404 0.686490 1.028569 -71.962242 -5.065886 94.251859 -6.087028 -11.070933 -5.568780 -7.087883 -16.868004 18.151782 1.557244 4.968240 -10.424613 0.000000 -0.000000 0.000000 -8.209420 -3.853960 -31.695806 2.290241 -8.013597 49.645362 2.828016 -4.977813 17.109880 0.000000 -0.000000 0.000000 1.127547 0.526797 4.640847 -6.671669 2.132770 16.896360 -6.425894 4.272312 -5.180100 -12.033522 42.604091 5.957153 -8.106094 36.380581 -13.524144 -24.372178 -10.027544 -1.127090 -55.487581 -5.431459 24.889710 16.224576 -66.664811 2.994110 -2.020083 -23.689059 -3.167288 14.561243 2.540179 8.753149 61.993284 -5.723758 5.215182 -15.940178 41.560831 -9.623183 11.296838 19.764387 -17.441276 
-0.702838 0.684422 1.029739 -72.244515 -5.081920 94.018543 -5.373537 -11.662894 -5.089928 -8.423383 -15.553471 21.981865 0.657686 4.681541 -8.534578 0.000000 -0.000000 0.000000 -8.474421 -3.366023 -32.211036 2.106104 -7.498940 48.431457 2.533252 -4.792249 16.478476 0.000000 -0.000000 0.000000 0.895296 0.474442 4.637732 -6.580212 2.134639 16.626211 -6.326825 4.260234 -5.041178 -11.926519 43.165526 6.211188 -7.983351 36.129122 -13.374764 -24.030365 -9.456686 -1.231611 -55.599178 -6.141015 25.269849 13.278741 -66.097795 6.045137 -3.383328 -24.288307 -2.700395 14.747807 1.293354 8.449780 62.223136 -5.991700 4.509909 -17.086132 41.134780 -11.172937 11.836158 19.475410 -17.432774 
-0.675486 0.682115 1.030142 -72.751317 -4.993524 93.839847 -4.575480 -11.474520 -5.144506 -9.781167 -14.448121 26.381818 -0.517441 4.117807 -5.829686 0.000000 -0.000000 0.000000 -8.532001 -2.961033 -32.606398 1.829521 -7.060597 46.754534 1.852523 -4.816098 15.822726 0.000000 -0.000000 0.000000 0.848152 0.350571 4.470938 -6.518196 2.049073 16.541302 -6.291606 4.272113 -5.024944 -12.044274 43.777358 6.457780 -8.142677 36.467467 -13.516989 -23.591690 -9.473974 -0.654359 -55.343010 -6.092623 25.552805 11.395328 -65.813393 9.210340 -5.968452 -23.642453 -4.120018 14.818802 0.967269 8.857248 62.544540 -5.767126 3.893301 -18.467544 40.834018 -12.670628 12.821440 18.966621 -17.634419 
